# Blender v3.1.2 OBJ File: ''
# www.blender.org
mtllib amogus.mtl
o Cube_Cube.002
v 1.000000 2.987420 1.000000
v 0.775144 2.576629 1.315372
v 0.775144 -0.255606 1.315372
v 0.886270 -0.641951 1.071895
v 1.445768 -0.236216 0.849806
v 1.540711 2.595307 0.785369
v 1.000000 2.987420 -1.000000
v 1.540711 2.595308 -0.785369
v -0.052436 -0.255606 1.315372
v 0.693555 1.570077 1.344897
v -0.160408 1.570077 1.344897
v -0.165706 -0.548054 -1.093922
v 0.886270 -0.641951 -0.997592
v -0.121996 -0.489256 0.891305
v -0.067647 2.987420 -1.000000
v -1.000000 2.987420 -1.000000
v -1.000000 2.987420 1.000000
v -0.067647 2.987420 1.000000
v -1.511350 -0.294334 0.796344
v -1.511350 2.615358 0.796344
v -1.511350 2.615359 -0.796344
v -1.511350 -0.294334 -0.796344
v -1.429470 -1.244123 -0.536572
v -1.450195 -1.361858 0.460584
v -1.000000 -0.666396 1.000000
v -0.775144 -0.255606 1.315372
v -0.634649 2.753568 1.266091
v -0.052436 2.576629 1.315372
v -0.906155 2.321587 1.344897
v -0.160408 2.321587 1.344897
v -0.906155 2.321587 2.031987
v -0.160408 2.321587 2.031987
v 1.445768 -0.236216 -0.775503
v 0.693555 2.321587 1.344897
v 0.966530 -1.350934 -0.243976
v 0.711973 -1.288445 -0.599255
v -0.662439 -0.246282 -1.521516
v -0.662439 2.567306 -1.521515
v -0.633545 2.918671 -1.762913
v -0.633545 0.227807 -1.762914
v -1.081880 -0.776542 -0.911646
v -0.044812 -0.246282 -1.521516
v 0.662439 2.567306 -1.521515
v -0.044812 2.567306 -1.521515
v -0.906155 1.570077 1.344897
v 0.662439 -0.246282 -1.521516
v -0.906155 1.570077 2.031987
v -0.697059 1.668305 2.220058
v -0.697059 2.223358 2.220058
v 0.693555 1.570077 2.031987
v -0.160408 1.570077 2.031987
v 0.693555 2.321587 2.031987
v -0.146263 1.668305 2.220058
v -0.146263 2.223358 2.220058
v 0.484459 2.223358 2.220058
v 0.484459 1.668305 2.220058
v -0.775169 -1.309602 -0.254492
v -0.836324 -1.302014 0.836369
v 0.711973 -1.288446 1.470231
v 0.966530 -1.350934 1.381333
v -1.235661 2.918671 -1.836295
v -1.235661 0.227807 -1.836295
v 0.633545 0.227807 -1.762914
v 0.633545 2.918671 -1.762913
v -0.042858 0.227807 -1.762914
v -0.042858 2.918671 -1.762913
v 1.235661 2.918671 -1.836295
v 1.235661 0.227807 -1.836295
v 1.235661 0.227807 -3.776234
v 1.235661 2.918672 -3.776233
v -0.083589 0.227807 -1.836295
v -0.083589 2.918671 -1.836295
v -0.083589 2.918672 -3.776233
v 0.634413 2.264011 -3.997159
v -0.042916 2.264011 -3.997159
v -1.235661 0.227807 -3.776234
v -0.083589 0.227807 -3.776234
v -1.237924 2.881502 -3.706278
v -0.042916 0.882469 -3.997159
v 0.634413 0.882469 -3.997159
v -0.634413 2.264011 -3.997159
v -0.634413 0.882469 -3.997159
vt 0.375000 0.750000
vt 0.625000 0.750000
vt 0.625000 0.750000
vt 0.625000 0.750000
vt 0.625000 0.500000
vt 0.625000 0.500000
vt 0.241544 0.750000
vt 0.375000 0.750000
vt 0.241544 0.750000
vt 0.375000 0.500000
vt 0.241544 0.750000
vt 0.241544 0.500000
vt 0.875000 0.500000
vt 0.758456 0.750000
vt 0.758456 0.500000
vt 0.625000 0.000000
vt 0.375000 0.250000
vt 0.375000 0.000000
vt 0.875000 0.750000
vt 0.875000 0.750000
vt 0.375000 0.250000
vt 0.375000 0.000000
vt 0.375000 1.000000
vt 0.625000 1.000000
vt 0.625000 1.000000
vt 0.875000 0.750000
vt 0.758456 0.750000
vt 0.758456 0.750000
vt 0.375000 0.750000
vt 0.875000 0.750000
vt 0.758456 0.750000
vt 0.375000 0.500000
vt 0.375000 0.500000
vt 0.375000 0.500000
vt 0.625000 0.250000
vt 0.375000 0.250000
vt 0.375000 0.250000
vt 0.125000 0.500000
vt 0.241544 0.500000
vt 0.625000 0.500000
vt 0.758456 0.500000
vt 0.375000 1.000000
vt 0.625000 1.000000
vt 0.625000 0.250000
vt 0.375000 1.000000
vt 0.625000 1.000000
vt 0.625000 1.000000
vt 0.241544 0.750000
vt 0.625000 0.750000
vt 0.375000 0.750000
vt 0.625000 0.883456
vt 0.375000 1.000000
vt 0.375000 0.883456
vt 0.625000 0.750000
vt 0.375000 0.750000
vt 0.875000 0.750000
vt 0.758456 0.750000
vt 0.241544 0.750000
vt 0.125000 0.500000
vt 0.125000 0.750000
vt 0.125000 0.500000
vt 0.375000 0.250000
vt 0.375000 1.000000
vt 0.375000 1.000000
vt 0.375000 1.000000
vt 0.125000 0.750000
vt 0.125000 0.500000
vt 0.375000 0.750000
vt 0.375000 0.750000
vt 0.375000 0.750000
vt 0.625000 0.250000
vt 0.375000 0.250000
vt 0.375000 0.500000
vt 0.625000 0.500000
vt 0.125000 0.500000
vt 0.241544 0.500000
vt 0.758456 0.500000
vt 0.375000 0.500000
vt 0.625000 0.500000
vt 0.625000 0.500000
vt 0.241544 0.500000
vt 0.758456 0.500000
vt 0.758456 0.500000
vt 0.625000 0.500000
vt 0.758456 0.500000
vt 0.125000 0.500000
vt 0.241544 0.500000
vt 0.625000 0.250000
vt 0.375000 0.250000
vt 0.625000 0.366544
vt 0.375000 0.500000
vt 0.375000 0.366544
vt 0.375000 0.250000
vt 0.125000 0.500000
vt 0.241544 0.500000
vt 0.375000 0.500000
vt 0.625000 0.250000
vt 0.875000 0.500000
vt 0.875000 0.500000
vt 0.875000 0.500000
vt 0.875000 0.500000
vt 0.875000 0.500000
vt 0.375000 0.500000
vt 0.125000 0.750000
vt 0.125000 0.750000
vt 0.625000 0.750000
vt 0.125000 0.750000
vt 0.125000 0.750000
vt 0.875000 0.500000
vt 0.625000 1.000000
vt 0.375000 1.000000
vt 0.875000 0.750000
vt 0.625000 0.250000
vt 0.125000 0.750000
vt 0.375000 0.250000
vt 0.625000 0.250000
vt 0.125000 0.500000
vn 0.5695 -0.0903 0.8170
vn 0.5652 0.0938 0.8196
vn 0.5642 0.1088 0.8185
vn 0.5871 0.8095 0.0000
vn 0.0000 -0.0162 0.9999
vn -0.1090 -0.9938 0.0221
vn -0.1329 -0.9911 0.0092
vn -0.0917 -0.9953 0.0315
vn 0.0000 1.0000 0.0000
vn -1.0000 -0.0000 0.0000
vn -0.5883 0.8086 0.0000
vn -0.9977 -0.0670 -0.0135
vn -0.9974 -0.0719 -0.0100
vn -0.9985 -0.0489 -0.0265
vn -0.5565 -0.0994 0.8249
vn -0.4813 0.0891 0.8720
vn -0.4944 0.0679 0.8666
vn -0.0106 0.1682 0.9857
vn -0.0270 0.1507 0.9882
vn -0.0434 0.1330 0.9902
vn -0.0774 -0.7949 0.6018
vn -0.1715 -0.6635 0.7283
vn 0.0000 -0.8759 0.4826
vn 0.0776 0.6610 0.7464
vn 0.0373 0.7099 0.7033
vn 0.1181 0.6074 0.7855
vn 0.9994 -0.0335 -0.0000
vn 0.3403 -0.0000 0.9403
vn 0.6242 -0.5348 -0.5696
vn 0.6361 -0.5271 -0.5636
vn 0.6496 -0.5180 -0.5565
vn -0.9929 0.0000 -0.1188
vn 0.0364 -0.7961 -0.6041
vn 0.0416 -0.7929 -0.6079
vn 0.0000 -0.8170 -0.5766
vn 0.0000 0.7788 -0.6273
vn -0.2739 -0.0012 -0.9617
vn -0.2660 -0.0032 -0.9640
vn -0.2788 0.0000 -0.9604
vn -0.6428 -0.1015 -0.7593
vn -0.6395 0.1324 -0.7573
vn -0.6414 0.1150 -0.7585
vn 0.6743 -0.1550 -0.7220
vn 0.6449 0.1058 -0.7569
vn 0.6361 0.1135 -0.7632
vn -0.6687 -0.0000 0.7435
vn 0.0000 -1.0000 -0.0000
vn 1.0000 -0.0000 0.0000
vn 0.0000 -0.0000 1.0000
vn 0.6687 -0.0000 0.7435
vn 0.0000 0.8864 0.4630
vn 0.0000 -0.8864 0.4630
vn 0.0019 -0.9975 -0.0711
vn 0.0415 -0.9986 -0.0338
vn -0.0483 -0.9918 -0.1181
vn -0.2828 -0.4634 -0.8398
vn -0.0362 -0.6088 -0.7925
vn -0.5179 -0.2669 -0.8127
vn -0.5052 -0.3004 0.8090
vn -0.4949 -0.3095 0.8120
vn -0.4689 -0.3315 0.8187
vn 0.9506 0.3102 0.0113
vn 0.9160 0.3992 -0.0405
vn 0.8969 0.4376 -0.0636
vn -0.2384 -0.9712 -0.0000
vn 0.1142 0.4082 0.9057
vn 0.3104 0.4096 0.8579
vn 0.0678 0.4055 0.9116
vn -0.9655 0.2603 0.0000
vn 0.9187 -0.3950 -0.0000
vn -0.1210 -0.0000 0.9927
vn 0.9929 0.0000 -0.1188
vn 0.0000 -0.4537 -0.8911
vn 0.0000 0.5663 0.8242
vn 0.1210 -0.0000 0.9927
vn 0.0000 0.3197 -0.9475
vn -1.0000 -0.0005 0.0005
vn -1.0000 -0.0003 0.0007
vn -1.0000 -0.0009 -0.0000
vn 0.0000 0.0000 -1.0000
vn -0.4091 0.0093 -0.9125
vn -0.3771 0.0209 -0.9259
vn -0.3679 0.0242 -0.9296
vn 0.3449 0.0000 -0.9386
vn 0.0000 -0.3197 -0.9475
vn -0.0113 0.9999 -0.0129
vn -0.0213 0.9998 -0.0067
vn 0.0000 0.9998 -0.0199
vn -0.0374 0.3476 -0.9369
vn -0.0415 0.3507 -0.9356
vn -0.0681 0.3699 -0.9266
vn -0.0079 -0.8098 -0.5867
vn -0.0118 -0.8061 -0.5917
vn -0.0168 -0.8013 -0.5980
vn 0.0000 0.6090 0.7932
vn 0.0864 -0.8104 0.5795
vn 0.1550 -0.7447 0.6491
vn 0.2226 -0.6674 0.7106
vn 0.0000 0.1150 0.9934
vn 0.2349 -0.9716 0.0297
vn 0.2156 -0.9756 0.0407
vn 0.2032 -0.9780 0.0476
vn 0.5362 0.3095 0.7854
vn 0.5675 -0.1373 0.8118
vn 0.5449 -0.3293 0.7712
vn -0.1497 -0.9887 -0.0000
vn -0.9963 -0.0859 -0.0000
vn -0.4872 0.2049 0.8489
vn -0.5702 -0.0955 0.8159
vn -0.5372 -0.3086 0.7850
vn 0.0000 0.1795 0.9838
vn -0.2276 -0.5652 0.7929
vn 0.0000 0.7511 0.6601
vn 0.6180 -0.5387 -0.5726
vn 0.0687 -0.7758 -0.6273
vn -0.2650 -0.0034 -0.9643
vn -0.5948 -0.3576 -0.7200
vn -0.6386 -0.1395 -0.7568
vn -0.5789 0.4098 -0.7049
vn 0.6045 -0.4898 -0.6282
vn 0.6819 -0.1596 -0.7138
vn 0.5779 0.4109 -0.7051
vn 0.0898 -0.9959 0.0120
vn 0.2202 -0.7047 -0.6744
vn -0.5253 -0.2825 0.8027
vn 0.9703 0.2363 0.0528
vn 0.3885 0.4052 0.8276
vn -1.0000 0.0000 0.0012
vn -0.4342 0.0000 -0.9008
vn -0.0322 0.9995 0.0000
vn 0.2463 -0.9689 0.0233
usemtl None.001
s 1
f 5/1/1 6/2/2 2/3/3
f 1/4/4 8/5/4 7/6/4
f 9/7/5 10/8/5 11/9/5
f 13/10/6 14/11/7 12/12/8
f 16/13/9 18/14/9 15/15/9
f 20/16/10 22/17/10 19/18/10
f 16/13/11 20/19/11 17/20/11
f 19/18/12 23/21/13 24/22/14
f 26/23/15 27/24/16 20/25/17
f 27/26/18 30/27/19 28/28/20
f 14/11/21 3/29/22 9/7/23
f 18/14/24 27/26/25 28/28/26
f 29/30/9 32/31/9 30/27/9
f 33/32/27 6/2/27 5/1/27
f 2/3/28 10/8/28 3/29/28
f 13/10/29 35/33/30 36/34/31
f 38/35/32 40/36/32 37/37/32
f 12/12/33 37/38/34 42/39/35
f 15/15/36 43/40/36 44/41/36
f 27/24/37 45/42/38 29/43/39
f 37/37/40 21/44/41 38/35/42
f 33/32/43 43/40/44 8/5/45
f 47/45/46 49/46/46 31/47/46
f 45/42/10 31/47/10 29/43/10
f 10/8/47 51/48/47 11/9/47
f 34/49/48 50/50/48 10/8/48
f 54/51/49 48/52/49 53/53/49
f 52/54/50 56/55/50 50/50/50
f 32/31/51 49/56/51 54/57/51
f 51/48/52 56/55/52 53/58/52
f 57/59/53 24/60/54 23/61/55
f 41/62/56 23/21/57 22/17/58
f 25/63/59 24/64/60 58/65/61
f 25/66/62 57/59/63 41/67/64
f 59/68/65 35/33/65 60/69/65
f 4/70/66 60/69/67 5/1/68
f 4/70/69 36/34/69 59/68/69
f 5/1/70 35/33/70 33/32/70
f 39/71/71 62/72/71 40/36/71
f 43/40/72 63/73/72 64/74/72
f 42/39/73 40/75/73 65/76/73
f 44/41/74 64/74/74 66/77/74
f 68/78/48 70/79/48 67/80/48
f 63/73/75 67/80/75 64/74/75
f 40/75/47 71/81/47 65/76/47
f 64/74/9 72/82/9 66/77/9
f 73/83/76 74/84/76 75/85/76
f 62/86/47 77/87/47 71/81/47
f 67/80/9 73/83/9 72/82/9
f 62/72/77 78/88/78 76/89/79
f 75/90/80 80/91/80 79/92/80
f 78/88/81 82/93/82 76/89/83
f 70/79/84 80/91/84 74/84/84
f 77/87/85 82/94/85 79/95/85
f 77/87/85 80/91/85 69/96/85
f 81/97/80 79/92/80 82/93/80
f 72/82/86 78/98/87 61/99/88
f 71/81/47 69/96/47 68/78/47
f 73/83/89 81/100/90 78/98/91
f 39/101/9 72/82/9 61/99/9
f 63/73/47 71/81/47 68/78/47
f 44/41/74 39/101/74 38/102/74
f 42/39/73 63/73/73 46/103/73
f 51/48/52 48/104/52 47/105/52
f 32/31/51 55/106/51 52/54/51
f 55/106/49 53/53/49 56/55/49
f 11/9/47 47/105/47 45/107/47
f 15/15/36 38/102/36 16/13/36
f 12/12/92 46/103/93 13/10/94
f 30/27/9 52/54/9 34/49/9
f 18/14/95 2/3/95 1/4/95
f 14/11/96 26/108/97 25/66/98
f 28/28/99 34/49/99 2/3/99
f 15/15/9 1/4/9 7/6/9
f 41/67/100 14/11/101 25/66/102
f 26/108/5 11/9/5 45/107/5
f 6/2/2 1/4/103 2/3/3
f 2/3/3 3/29/104 5/1/1
f 3/29/104 4/70/105 5/1/1
f 1/4/4 6/2/4 8/5/4
f 9/7/5 3/29/5 10/8/5
f 13/10/6 4/70/106 14/11/7
f 16/13/9 17/20/9 18/14/9
f 20/16/10 21/44/10 22/17/10
f 16/13/11 21/109/11 20/19/11
f 19/18/12 22/17/107 23/21/13
f 27/24/16 17/110/108 20/25/17
f 20/25/17 19/111/109 26/23/15
f 19/111/109 25/63/110 26/23/15
f 27/26/18 29/30/111 30/27/19
f 14/11/21 4/70/112 3/29/22
f 18/14/24 17/20/113 27/26/25
f 29/30/9 31/112/9 32/31/9
f 33/32/27 8/5/27 6/2/27
f 2/3/28 34/49/28 10/8/28
f 13/10/29 33/32/114 35/33/30
f 38/35/32 39/71/32 40/36/32
f 12/12/33 41/67/115 37/38/34
f 15/15/36 7/6/36 43/40/36
f 27/24/37 26/23/116 45/42/38
f 37/37/40 41/62/117 22/17/118
f 22/17/118 21/44/41 37/37/40
f 21/44/41 16/113/119 38/35/42
f 33/32/43 13/10/120 46/103/121
f 46/103/121 43/40/44 33/32/43
f 43/40/44 7/6/122 8/5/45
f 47/45/46 48/52/46 49/46/46
f 45/42/10 47/45/10 31/47/10
f 10/8/47 50/50/47 51/48/47
f 34/49/48 52/54/48 50/50/48
f 54/51/49 49/46/49 48/52/49
f 52/54/50 55/106/50 56/55/50
f 32/31/51 31/112/51 49/56/51
f 51/48/52 50/50/52 56/55/52
f 57/59/53 58/114/123 24/60/54
f 41/62/56 57/115/124 23/21/57
f 25/63/59 19/111/125 24/64/60
f 25/66/62 58/114/126 57/59/63
f 59/68/65 36/34/65 35/33/65
f 4/70/66 59/68/127 60/69/67
f 4/70/69 13/10/69 36/34/69
f 5/1/70 60/69/70 35/33/70
f 39/71/71 61/116/71 62/72/71
f 43/40/72 46/103/72 63/73/72
f 42/39/73 37/38/73 40/75/73
f 44/41/74 43/40/74 64/74/74
f 68/78/48 69/96/48 70/79/48
f 63/73/75 68/78/75 67/80/75
f 40/75/47 62/86/47 71/81/47
f 64/74/9 67/80/9 72/82/9
f 73/83/76 70/79/76 74/84/76
f 62/86/47 76/117/47 77/87/47
f 67/80/9 70/79/9 73/83/9
f 62/72/77 61/116/128 78/88/78
f 75/90/80 74/84/80 80/91/80
f 78/88/81 81/97/129 82/93/82
f 70/79/84 69/96/84 80/91/84
f 77/87/85 76/117/85 82/94/85
f 77/87/85 79/95/85 80/91/85
f 81/97/80 75/90/80 79/92/80
f 72/82/86 73/83/130 78/98/87
f 71/81/47 77/87/47 69/96/47
f 73/83/89 75/85/76 81/100/90
f 39/101/9 66/77/9 72/82/9
f 63/73/47 65/76/47 71/81/47
f 44/41/74 66/77/74 39/101/74
f 42/39/73 65/76/73 63/73/73
f 51/48/52 53/58/52 48/104/52
f 32/31/51 54/57/51 55/106/51
f 55/106/49 54/51/49 53/53/49
f 11/9/47 51/48/47 47/105/47
f 15/15/36 44/41/36 38/102/36
f 12/12/92 42/39/35 46/103/93
f 30/27/9 32/31/9 52/54/9
f 18/14/95 28/28/95 2/3/95
f 14/11/96 9/7/23 26/108/97
f 28/28/99 30/27/99 34/49/99
f 15/15/9 18/14/9 1/4/9
f 41/67/100 12/12/131 14/11/101
f 26/108/5 9/7/5 11/9/5
